<?xml version="1.0" standalone="no"?>
<!DOCTYPE svg PUBLIC "-//W3C//DTD SVG 20010904//EN"
 "http://www.w3.org/TR/2001/REC-SVG-20010904/DTD/svg10.dtd">
<svg version="1.0" xmlns="http://www.w3.org/2000/svg"
 width="64.000000pt" height="64.000000pt" viewBox="0 0 64.000000 64.000000"
 preserveAspectRatio="xMidYMid meet">
<metadata>
Created by potrace 1.15, written by Peter Selinger 2001-2017
</metadata>
<g transform="translate(0.000000,64.000000) scale(0.100000,-0.100000)"
fill="#000000" stroke="none">
<path d="M306 258 c-30 -27 -46 -78 -25 -78 8 0 22 14 31 30 21 37 42 46 74
32 42 -20 31 -55 -46 -144 -38 -45 -70 -85 -70 -89 0 -5 41 -9 91 -9 68 0 90
3 87 13 -3 7 -29 14 -61 17 l-57 5 50 59 c65 75 73 91 65 127 -13 58 -91 79
-139 37z"/>
<path d="M497 169 c-42 -61 -77 -115 -77 -120 0 -5 34 -9 75 -9 68 0 75 -2 75
-20 0 -11 7 -20 15 -20 8 0 15 9 15 20 0 13 7 20 20 20 11 0 20 7 20 15 0 8
-9 15 -20 15 -19 0 -20 7 -20 105 0 79 -3 105 -13 105 -7 0 -47 -50 -90 -111z"/>
</g>
</svg>
